<svg width="59" height="60" viewBox="0 0 59 60" fill="none" xmlns="http://www.w3.org/2000/svg">
<path fill-rule="evenodd" clip-rule="evenodd" d="M32.4884 0.0631283C39.222 0.483983 45.5349 3.85082 50.1643 8.48023C55.6354 14.3722 58.5814 21.5267 58.5814 29.9438C58.5814 36.6775 56.0562 42.9903 51.8477 48.4615C47.6391 53.5117 41.7472 57.2994 35.0135 58.562C28.2798 59.8246 21.5461 58.9828 15.6541 55.616C9.76218 52.2492 5.13277 47.1989 2.60764 40.8861C0.0825109 34.5732 -0.338344 27.4187 1.76593 21.1059C3.87021 14.3722 7.6579 8.90108 13.5499 5.11339C19.021 1.32569 25.7547 -0.357727 32.4884 0.0631283ZM34.5926 54.3534C40.0637 53.0909 45.114 50.1449 48.9017 45.5155C52.2685 40.8861 54.3728 35.415 53.952 29.523C53.952 22.7893 51.4268 16.0556 46.7974 11.4262C42.5889 7.21767 37.5386 4.69253 31.6466 4.27168C26.1755 3.85082 20.2836 5.11339 15.6541 8.48023C11.0247 11.8471 7.6579 16.4765 5.97448 22.3684C4.29106 27.8396 4.29106 33.7315 6.81619 39.2027C9.34132 44.6738 13.129 48.8823 18.1793 51.8283C23.2295 54.7743 29.1215 55.616 34.5926 54.3534ZM29.5424 27.4187L39.6429 16.8973L42.5889 19.8433L32.4884 30.3647L42.5889 40.8861L39.6429 43.8321L29.5424 33.3107L19.4418 43.8321L16.4959 40.8861L26.5964 30.3647L16.4959 19.8433L19.4418 16.8973L29.5424 27.4187Z" fill="#F24E1E"/>
</svg>
