<svg width="59" height="60" viewBox="0 0 59 60" fill="none" xmlns="http://www.w3.org/2000/svg">
<path d="M29.5 0.5C37.3239 0.5 44.8273 3.60803 50.3596 9.14035C55.892 14.6727 59 22.1761 59 30C59 37.8239 55.892 45.3273 50.3596 50.8596C44.8273 56.392 37.3239 59.5 29.5 59.5C21.6761 59.5 14.1727 56.392 8.64035 50.8596C3.10803 45.3273 0 37.8239 0 30C0 22.1761 3.10803 14.6727 8.64035 9.14035C14.1727 3.60803 21.6761 0.5 29.5 0.5ZM25.8251 35.8199L19.2719 29.2625C19.037 29.0276 18.7581 28.8412 18.4511 28.7141C18.1442 28.5869 17.8152 28.5215 17.483 28.5215C17.1507 28.5215 16.8217 28.5869 16.5148 28.7141C16.2078 28.8412 15.9289 29.0276 15.694 29.2625C15.2195 29.737 14.953 30.3805 14.953 31.0515C14.953 31.7225 15.2195 32.366 15.694 32.8404L24.0383 41.1847C24.2725 41.4208 24.5512 41.6082 24.8583 41.7361C25.1653 41.864 25.4946 41.9299 25.8273 41.9299C26.1599 41.9299 26.4892 41.864 26.7962 41.7361C27.1033 41.6082 27.382 41.4208 27.6162 41.1847L44.8948 23.9019C45.1329 23.668 45.3223 23.3892 45.452 23.0817C45.5818 22.7742 45.6495 22.444 45.651 22.1102C45.6526 21.7764 45.588 21.4456 45.4611 21.1369C45.3342 20.8282 45.1474 20.5477 44.9115 20.3115C44.6756 20.0754 44.3953 19.8883 44.0867 19.761C43.7782 19.6337 43.4475 19.5687 43.1137 19.5699C42.7799 19.5711 42.4496 19.6383 42.142 19.7677C41.8343 19.8971 41.5553 20.0862 41.3211 20.324L25.8251 35.8199Z" fill="#088E16"/>
</svg>
